<?xml version="1.0" standalone="no"?><!DOCTYPE svg PUBLIC "-//W3C//DTD SVG 1.1//EN" "http://www.w3.org/Graphics/SVG/1.1/DTD/svg11.dtd"><svg t="1501078743656" class="icon" style="" viewBox="0 0 1024 1024" version="1.1" xmlns="http://www.w3.org/2000/svg" p-id="9171" xmlns:xlink="http://www.w3.org/1999/xlink" width="32" height="32"><defs><style type="text/css"></style></defs><path d="M1013.824 826.88c-31.424-8.768-102.464-39.36-144.32-58.304-64.128-28.864-218.432-319.68-264.064-409.216h345.216a21.568 21.568 0 0 0 21.44-21.504V238.08a21.504 21.504 0 0 0-21.44-21.504H598.4V83.584a26.944 26.944 0 0 0-26.432-27.2H453.504a26.88 26.88 0 0 0-26.56 27.2v128.128l0.064 4.864H72.384a21.504 21.504 0 0 0-21.376 21.504v99.84c0 11.776 9.664 21.504 21.376 21.504h348.864c-38.848 75.52-200.192 379.072-266.816 409.216-41.856 18.944-112.896 49.536-144.32 58.304-8.896 2.688-12.928 7.296-7.936 20.672 3.84 10.24 28.672 75.52 40.192 106.176 3.52 9.408 10.432 15.424 20.864 13.504 17.92-3.456 96.512-37.184 152.256-52.48 77.76-21.248 212.352-238.272 298.88-391.168 86.08 155.264 217.344 370.304 294.08 391.168 55.68 15.232 134.272 49.024 152.128 52.48 10.624 1.856 17.344-4.096 20.992-13.504l40.256-106.176c4.992-13.376 0.896-18.048-8-20.736z" p-id="9172" fill="#d81e06"></path></svg>