<?xml version="1.0" standalone="no"?><!DOCTYPE svg PUBLIC "-//W3C//DTD SVG 1.1//EN" "http://www.w3.org/Graphics/SVG/1.1/DTD/svg11.dtd"><svg t="1501078566438" class="icon" style="" viewBox="0 0 1025 1024" version="1.1" xmlns="http://www.w3.org/2000/svg" p-id="6145" xmlns:xlink="http://www.w3.org/1999/xlink" width="32.03125" height="32"><defs><style type="text/css"></style></defs><path d="M528.909088 444.020746l230.843552 0 0 148.299581-230.843552 0 0-148.299581Z" p-id="6146" fill="#d81e06"></path><path d="M266.586591 242.557338l89.539292 0 0 133.608997-89.539292 0 0-133.608997Z" p-id="6147" fill="#d81e06"></path><path d="M528.909088 248.1538l230.843552 0 0 148.299581-230.843552 0 0-148.299581Z" p-id="6148" fill="#d81e06"></path><path d="M511.999977 0c-282.770202 0-512 229.229798-512 512 0 282.769178 229.229798 512 512 512 282.770202 0 512.001023-229.230822 512.001023-512C1024.001 229.229798 794.770179 0 511.999977 0zM477.144121 200.586434l334.373487 0 0 482.673068-51.764967 0 0-43.370787L528.909088 639.888715l0 43.370787-51.764967 0L477.144121 200.586434zM405.093132 772.798794c0 37.774325-16.089443 58.989509-48.267307 63.656809-17.259082 2.797719-44.769646 2.797719-82.543971 0-1.86958-15.389502-4.6673-32.177863-8.394181-50.366108 27.047006 3.2623 47.097668 4.89652 60.159148 4.89652 20.051685 0 30.080086-10.262738 30.080086-30.779004L356.126907 596.517929l-89.539292 0c0.464581 110.994953-20.286022 195.397249-62.257949 253.228375-15.389502-16.788361-28.450982-29.849842-39.173185-39.173185 35.441187-45.239344 52.92949-120.083959 52.464909-224.548172L217.621389 197.787692l187.472765 0L405.094155 772.798794zM857.686114 813.370839 431.674533 813.370839l0-48.967248 426.01158 0L857.686114 813.370839z" p-id="6149" fill="#d81e06"></path><path d="M266.586591 419.538145l89.539292 0 0 133.608997-89.539292 0 0-133.608997Z" p-id="6150" fill="#d81e06"></path></svg>