<?xml version="1.0" standalone="no"?><!DOCTYPE svg PUBLIC "-//W3C//DTD SVG 1.1//EN" "http://www.w3.org/Graphics/SVG/1.1/DTD/svg11.dtd"><svg t="1501078731744" class="icon" style="" viewBox="0 0 1024 1024" version="1.1" xmlns="http://www.w3.org/2000/svg" p-id="8421" xmlns:xlink="http://www.w3.org/1999/xlink" width="32" height="32"><defs><style type="text/css"></style></defs><path d="M379.752 539.296693l125.591393 331.3752-135.775336 0.424672-55.158251-148.07957-50.490951 148.503219-132.380006-0.423649 114.983801-328.830237L131.963521 235.500619l132.380006 0.423649 48.369637 120.076796 53.461609-165.475775L131.538849 190.525288 131.538849 87.845721l369.561917 0 0.424672 97.587596L379.752 539.296693zM781.136693 556.691875l130.683365 313.554322-139.169643-0.848321-55.582923-136.623657L669.122527 869.823572l-139.169643-0.424672L644.088364 551.176254 518.496971 240.166895l130.258693 0 57.280588 137.89665 67.887157-188.387601L526.133905 189.675944 526.133905 87.845721l387.382794 0-0.848321 96.314603L781.136693 556.691875z" p-id="8422" fill="#d81e06"></path></svg>