<?xml version="1.0" standalone="no"?><!DOCTYPE svg PUBLIC "-//W3C//DTD SVG 1.1//EN" "http://www.w3.org/Graphics/SVG/1.1/DTD/svg11.dtd"><svg t="1501078920431" class="icon" style="" viewBox="0 0 1024 1024" version="1.1" xmlns="http://www.w3.org/2000/svg" p-id="13064" xmlns:xlink="http://www.w3.org/1999/xlink" width="32" height="32"><defs><style type="text/css"></style></defs><path d="M878.53056 608.51712c-27.65824 0-118.016 6.6304-118.016-22.17984 0-28.79488 90.36288-82.19136 118.016-82.19136 27.65824 0 50.08384 23.31648 50.08384 52.1216 0 28.93312-22.4256 52.2496-50.08384 52.2496zM662.89664 672.36864H360.85248c-31.48288 0-56.97024-38.99392-56.97024-87.168h415.97952c0 48.04096-25.49248 87.168-56.96512 87.168zM145.21344 608.51712c-27.65824 0-50.08384-23.31648-50.08384-52.1216 0-28.80512 22.4256-52.1216 50.08384-52.1216 27.648 0 118.01088 53.39648 118.01088 82.19648 0 28.80512-90.36288 22.04672-118.01088 22.04672z" fill="#d81e06" p-id="13065"></path><path d="M425.68192 186.75712c4.95616-5.77024 13.55776-10.09664 17.85856-10.09664h136.58112c4.3008 0 12.9024 4.4032 17.85856 10.09664l22.6816 62.47424H402.94912l22.7328-62.47424z" fill="#d81e06" p-id="13066"></path><path d="M909.25056 440.64256c-0.64512-0.768-1.15712-1.39776-1.92-2.03264l-31.72864-30.848c26.38336-5.98528 54.79936-28.29312 54.79936-51.10272 0-26.50624-36.57216-35.9424-67.92704-35.9424-32.61952 0-36.44928 22.56384-36.83328 38.49728l-82.0736-79.65696c-16.69632-16.57344-48.30208-29.696-71.87456-29.696H352.0512c-23.5776 0-55.17824 13.12768-71.87968 29.696L198.22592 359.08096c-0.384-15.93344-4.20352-38.49216-36.82816-38.49216-31.35488 0-67.92704 9.43104-67.92704 35.9424 0 22.8096 28.416 44.98432 54.79936 51.10272L116.5312 438.4768c-0.768 0.62976-1.27488 1.40288-1.90976 2.03776-34.02752 29.30688-56.20224 83.47136-56.20224 122.85952v116.992c0 28.42624 11.0848 54.17472 29.06112 73.41056v45.37856c0 26.50112 22.0416 48.17408 49.19296 48.17408h59.51488c27.15136 0 49.19296-21.54496 49.19296-48.17408v-11.60192H778.61376v11.60192c0 26.50112 22.05184 48.17408 49.19808 48.17408h59.50464c27.15136 0 49.19808-21.67296 49.19808-48.17408l0.01024-45.37856c17.96608-19.23584 29.05088-44.98432 29.05088-73.41056v-116.992c-0.13824-39.26016-22.30272-93.41952-56.33024-122.7264v-0.00512z" fill="#d81e06" p-id="13067"></path><path d="M509.5936 392.6272c21.34528 1.16224 37.1968-16.95232 40.20736-36.66944 0.37376-1.31072 0.55296-2.78016 0.46592-4.41344a13.568 13.568 0 0 0-0.39936-4.20352c-2.88768-20.992-18.70336-35.70688-40.2688-36.88448-22.92224-1.24928-39.5264 19.74784-40.66304 41.08288-1.24416 23.16288 19.53792 39.94112 40.65792 41.088z m15.25248-41.08288c-1.06496 19.87584-29.43488 19.87584-30.49984 0-1.05984-19.8912 29.44512-19.78368 30.49984 0zM356.59264 449.37216a13.40416 13.40416 0 0 0-0.40448-4.20352c-2.88256-20.99712-18.70336-35.712-40.2688-36.88448-22.92736-1.24416-39.5264 19.74784-40.66304 41.08288-1.23392 23.16288 19.54816 39.936 40.66304 41.08288 21.34016 1.16224 37.1968-16.95232 40.20736-36.66944 0.37888-1.3056 0.55296-2.77504 0.46592-4.40832z m-55.91552 0c-1.05984-19.8912 29.44-19.78368 30.49472 0-1.05984 19.88096-29.43488 19.88096-30.49472 0z m448.1024 0a13.40416 13.40416 0 0 0-0.40448-4.20352c-2.88256-20.99712-18.69824-35.712-40.26368-36.88448-22.92736-1.24416-39.5264 19.74784-40.66816 41.08288-1.23392 23.16288 19.54816 39.936 40.66816 41.08288 21.34016 1.16224 37.1968-16.95232 40.20736-36.66944 0.36864-1.3056 0.54272-2.77504 0.4608-4.40832z m-55.91552 0c-1.06496-19.8912 29.43488-19.78368 30.4896 0-1.05984 19.88096-29.44 19.88096-30.4896 0z m-30.61248 42.92608c10.16832 0.77312 15.08352 10.17856 10.97216 19.31776l-58.04544 129.15712c-2.432 5.41184-9.17504 6.9632-14.35136 5.89312-61.16352-12.57472-119.92064-12.57472-179.41504-0.41984a15.48288 15.48288 0 0 1-2.93376 0.61952c-4.88448 1.54624-10.28096 0.13824-13.0816-6.09792l-58.04032-129.024c-4.16256-9.25184 0.84992-18.39616 10.97216-19.32288 58.41408-5.34016 106.55744-29.09696 142.98112-76.04224 5.48864-7.08096 15.69792-3.36896 19.95776 2.59584 33.50016 46.9248 85.0176 69.08416 140.98432 73.32352z m-65.42848 127.52384l46.68416-103.87456c-52.41856-7.4496-98.85184-29.48608-133.47328-70.24128-35.57888 40.31488-80.73728 62.06464-133.0688 70.12352l46.78144 103.99232c58.25536-10.71104 114.816-10.71104 173.07648 0z m11.65824 68.48512c-66.29888-17.72544-130.92864-18.25792-197.20192 0-15.7952 4.352-9.08288 29.12768 6.7584 24.76544 62.0032-17.08032 121.6768-16.57856 183.68512 0 15.86688 4.23936 22.58944-20.5312 6.7584-24.76544z" fill="#d81e06" p-id="13068"></path></svg>