<?xml version="1.0" standalone="no"?><!DOCTYPE svg PUBLIC "-//W3C//DTD SVG 1.1//EN" "http://www.w3.org/Graphics/SVG/1.1/DTD/svg11.dtd"><svg t="1501078686410" class="icon" style="" viewBox="0 0 1024 1024" version="1.1" xmlns="http://www.w3.org/2000/svg" p-id="6967" xmlns:xlink="http://www.w3.org/1999/xlink" width="32" height="32"><defs><style type="text/css"></style></defs><path d="M936.849585 87.149915H871.489649v108.935894c0 137.229866-63.518938 260.472746-172.581832 327.29968C807.974711 590.162424 871.489649 712.441304 871.489649 849.70617v87.149915h65.361936c22.339978 0 42.999958 15.569985 42.999958 44.933956 0 23.289977-18.131982 42.204959-40.47296 42.204959H84.036418c-22.334978 0-40.45996-18.914982-40.459961-42.216959 0-23.288977 15.825985-44.921956 43.564958-44.921956h65.361936v-87.149915c0-137.259866 67.745934-259.539747 176.808827-326.341681C220.247285 456.541554 152.500351 333.309675 152.500351 196.086809V87.150915H87.139415c-22.346978 0-43.000958-21.636979-43.000958-44.944956C44.138457 18.914982 64.792437 0 87.139415 0l4.412996 0.007h848.394171c22.327978 0 40.47796 20.27198 40.477961 43.567957 0 23.301977-21.245979 43.573957-43.573958 43.573958z m-152.511851 0H239.652266v108.935894c0 135.447868 71.79793 253.304753 197.795807 286.34972a39.644961 39.644961 0 0 1 14.056986 6.897993c0.062 0.042 0.122 0.083 0.176 0.133 0.335 0.25 0.649999 0.516999 0.965999 0.769999 0.243 0.2 0.487 0.399 0.723999 0.6 0.14 0.122 0.278 0.25 0.425 0.375999 6.211994 5.477995 10.911989 12.966987 13.065987 21.858979 2.289998 9.496991 1.294999 19.040981-2.226998 27.343973-0.038 0.084-0.074 0.169-0.11 0.254-0.189 0.425-0.371 0.859999-0.577999 1.278999-0.095 0.211-0.198 0.416-0.302 0.630999-0.15 0.314-0.309 0.629999-0.473999 0.943999-0.195 0.377-0.393 0.745999-0.601 1.115999-0.097 0.164-0.176 0.309-0.260999 0.466a41.495959 41.495959 0 0 1-2.102998 3.283996c-0.019 0.025-0.036 0.047-0.048 0.073-0.36 0.495-0.716999 0.980999-1.093999 1.465999a3.396997 3.396997 0 0 1-0.175 0.218c-0.34 0.432-0.680999 0.856999-1.032999 1.266999a7.466993 7.466993 0 0 1-0.237 0.265999c-0.352 0.415-0.709999 0.801999-1.073999 1.194999-0.08 0.08-0.152 0.158-0.225 0.242a38.079963 38.079963 0 0 1-1.335998 1.344999 41.27196 41.27196 0 0 1-2.962997 2.569997c-0.05 0.038-0.111 0.08-0.159 0.116-0.474 0.369-0.946999 0.724999-1.431999 1.071999l-0.14 0.097c-4.317996 3.046997-9.192991 5.235995-14.353986 6.362994-125.228878 33.596967-196.283808 150.089853-196.283808 285.027721v87.149915h544.685468v-87.149915c0-135.470868-72.300929-252.362754-198.266806-285.372721a29.265971 29.265971 0 0 1-1.943998-0.565c-0.188-0.055-0.358-0.12-0.54-0.182999a42.577958 42.577958 0 0 1-1.135999-0.392 16.775984 16.775984 0 0 1-0.977999-0.376 17.649983 17.649983 0 0 1-0.576999-0.229999 40.017961 40.017961 0 0 1-13.309987-9.024992l-0.182-0.179999c-0.275-0.287-0.540999-0.569999-0.809999-0.87-0.175-0.194-0.351-0.38-0.527-0.579999-0.194-0.223-0.384-0.449-0.577999-0.678999a31.939969 31.939969 0 0 1-0.752999-0.914999c-0.121-0.152-0.242-0.297-0.357-0.449-0.36-0.467-0.709999-0.939999-1.062999-1.422999 0-0.014-0.007-0.019-0.019-0.032a42.229959 42.229959 0 0 1-3.963996-6.913993c-0.014-0.017-0.02-0.036-0.031-0.062a36.391964 36.391964 0 0 1-0.729999-1.719998c-0.03-0.061-0.062-0.121-0.084-0.18a48.773952 48.773952 0 0 1-0.608-1.643998c-0.03-0.086-0.06-0.17-0.097-0.261a45.985955 45.985955 0 0 1-0.531999-1.660998c-0.02-0.073-0.05-0.152-0.074-0.23-0.2-0.691999-0.396-1.380999-0.57-2.089998-0.116-0.479-0.2-0.956999-0.304999-1.435999a7.562993 7.562993 0 0 0-0.096-0.419999 81.96892 81.96892 0 0 1-0.273-1.615999c-0.026-0.147-0.05-0.279-0.073-0.418999-0.093-0.606999-0.16-1.199999-0.226-1.804999 0-0.074-0.018-0.14-0.025-0.211999-2.095998-20.57998 10.58399-40.124961 30.367971-45.280956 126.039877-33.095968 198.359806-150.950853 198.359806-286.39972V87.149915z m-214.95979 332.114676c-23.542977 6.138994-43.500958 20.28198-57.510944 38.977961a107.289895 107.289895 0 0 0-14.845985-16.051984l-2.884998-2.440997-2.265997-2.042998-2.633998-1.765999c-10.59999-7.739992-22.414978-13.356987-35.137965-16.708983-65.259936-17.115983-113.711889-67.449934-135.790868-135.994868h387.301622c-22.167978 68.497933-70.786931 118.842884-136.229867 136.027868z m-78.862923 245.17276s3.741996-3.052997 3.861996-3.141997l0.519-0.369999 2.426997-2.029998 0.397-0.38a81.76492 81.76492 0 0 0 4.971995-4.727995l2.144998-2.245998 2.928997-3.422997 2.955997-3.766996s0.990999-1.467999 1.036999-1.540999l5.993994 9.145991 2.624998 1.412999 0.784999 0.706999c7.488993 7.651993 16.107984 13.674987 25.662975 17.912983 0 0 2.752997 1.175999 3.605996 1.501998 0.49 0.19 3.080997 1.122999 3.080997 1.122999 1.419999 0.49 2.853997 0.932999 4.305996 1.329999 72.969929 20.51298 117.583885 80.933921 117.583885 177.007827v18.545982H348.58816v-18.545982c0-95.320907 43.780957-155.463848 115.670887-176.607827 8.715991-2.228998 16.967983-5.931994 24.599976-11.03199l1.655998-0.874999z" p-id="6968" fill="#d81e06"></path></svg>