<?xml version="1.0" standalone="no"?><!DOCTYPE svg PUBLIC "-//W3C//DTD SVG 1.1//EN" "http://www.w3.org/Graphics/SVG/1.1/DTD/svg11.dtd"><svg t="1501081151200" class="icon" style="" viewBox="0 0 1024 1024" version="1.1" xmlns="http://www.w3.org/2000/svg" p-id="17915" xmlns:xlink="http://www.w3.org/1999/xlink" width="32" height="32"><defs><style type="text/css"></style></defs><path d="M0 499l257 0 0 26-257 0 0-26Z" p-id="17916" fill="#d81e06"></path><path d="M766 243l258 0 0 26-258 0 0-26Z" p-id="17917" fill="#d81e06"></path><path d="M305 462c-27.6 0-50 22.4-50 50 0 27.6 22.4 50 50 50s50-22.4 50-50C355 484.4 332.6 462 305 462zM305 537c-13.8 0-25-11.2-25-25s11.2-25 25-25 25 11.2 25 25S318.8 537 305 537z" p-id="17918" fill="#d81e06"></path><path d="M718 206c-27.6 0-50 22.4-50 50 0 27.6 22.4 50 50 50s50-22.4 50-50C768 228.4 745.6 206 718 206zM718 281c-13.8 0-25-11.2-25-25s11.2-25 25-25 25 11.2 25 25S731.8 281 718 281z" p-id="17919" fill="#d81e06"></path><path d="M766 755l258 0 0 26-258 0 0-26Z" p-id="17920" fill="#d81e06"></path><path d="M718 718c-27.6 0-50 22.4-50 50 0 27.6 22.4 50 50 50s50-22.4 50-50C768 740.4 745.6 718 718 718zM718 793c-13.8 0-25-11.2-25-25s11.2-25 25-25 25 11.2 25 25S731.8 793 718 793z" p-id="17921" fill="#d81e06"></path><path d="M331 499.9l425.3 0 0 26-425.3 0 0-26Z" p-id="17922" fill="#d81e06"></path></svg>