<?xml version="1.0" standalone="no"?><!DOCTYPE svg PUBLIC "-//W3C//DTD SVG 1.1//EN" "http://www.w3.org/Graphics/SVG/1.1/DTD/svg11.dtd"><svg t="1501078716783" class="icon" style="" viewBox="0 0 1024 1024" version="1.1" xmlns="http://www.w3.org/2000/svg" p-id="7701" xmlns:xlink="http://www.w3.org/1999/xlink" width="32" height="32"><defs><style type="text/css"></style></defs><path d="M711.738 87.558c28.533-14.267 42.801-9.474 42.801 14.267-23.797 47.594-52.332 90.395-85.604 128.402h78.469c61.805 0 90.34 28.534 85.602 85.602v214.004c4.738 61.86-23.797 90.395-85.602 85.602H519.133v85.602h385.209c19.004 14.268 19.004 28.534 0 42.802H519.133v171.203c-14.267 23.741-28.533 23.741-42.8 0V743.839H105.392c-19.06-14.268-19.06-28.534 0-42.802h370.941v-85.602H248.061c-57.068 4.793-85.602-23.741-85.602-85.602V315.83c0-57.068 28.534-85.602 85.602-85.602h92.735c-19.06-33.271-47.594-73.675-85.602-121.269-4.792-28.534 7.134-38.008 35.667-28.534 52.275 66.598 85.602 116.532 99.869 149.803h221.138c42.802-47.539 76.073-95.076 99.87-142.67z m-235.405 185.47H262.328c-38.064 0-57.068 19.06-57.068 57.068v71.335h271.072V273.028z m0 171.204H205.26v71.334c0 42.801 19.004 61.861 57.068 57.068h214.004V444.232z m256.806-171.204H519.133v128.403h271.072v-71.335c4.738-38.008-14.266-57.068-57.066-57.068z m57.066 171.204H519.133v128.403h214.006c42.801 4.793 61.805-14.268 57.066-57.068v-71.335z" p-id="7702" fill="#d81e06"></path></svg>