<?xml version="1.0" standalone="no"?><!DOCTYPE svg PUBLIC "-//W3C//DTD SVG 1.1//EN" "http://www.w3.org/Graphics/SVG/1.1/DTD/svg11.dtd"><svg t="1501078760947" class="icon" style="" viewBox="0 0 1024 1024" version="1.1" xmlns="http://www.w3.org/2000/svg" p-id="9945" xmlns:xlink="http://www.w3.org/1999/xlink" width="32" height="32"><defs><style type="text/css"></style></defs><path d="M248.72634 244.202814c-33.614585 220.688261-83.980693 380.161323-151.0973 478.475466-7.194866 12.029988-16.807804 16.807804-28.780487 14.390755-9.612938-7.194866-10.79281-16.750499-3.597945-28.780487 64.75584-95.897094 113.885793-253.009388 147.500379-471.2806 2.360767-11.972683 9.555633-17.987676 21.585621-17.987676C246.30929 223.854371 251.087107 232.230132 248.72634 244.202814zM532.934287 100.30038l0 726.707037c0 52.725852-25.182542 81.506339-75.549673 86.34146-59.978023 2.360767-123.55399-7.194866-190.670597-28.780487-14.390755-4.835122-19.224854-14.390755-14.390755-28.780487 4.777817-9.612938 14.390755-12.029988 28.780487-7.194866 148.680251 43.171242 220.630956 37.156248 215.854163-17.987676L496.957911 100.30038c0-14.390755 5.958712-21.585621 17.9887-21.585621C524.502243 78.714759 530.516214 85.909625 532.934287 100.30038zM795.555589 233.410004c64.75584 194.268542 112.703875 359.756597 143.902434 496.463142 2.360767 14.390755-2.418073 24.00267-14.390755 28.780487-12.029988 2.417049-19.224854-3.597945-21.585621-17.987676-38.394449-165.488055-85.162612-328.558038-140.30449-489.268276-4.835122-11.972683-2.418073-20.348444 7.194866-25.182542C782.344706 221.437321 790.721491 223.854371 795.555589 233.410004z" p-id="9946" fill="#d81e06"></path></svg>