<?xml version="1.0" standalone="no"?><!DOCTYPE svg PUBLIC "-//W3C//DTD SVG 1.1//EN" "http://www.w3.org/Graphics/SVG/1.1/DTD/svg11.dtd"><svg t="1500224503489" class="icon" style="" viewBox="0 0 1024 1024" version="1.1" xmlns="http://www.w3.org/2000/svg" p-id="2360" xmlns:xlink="http://www.w3.org/1999/xlink" width="16" height="16"><defs><style type="text/css"></style></defs><path d="M269.248 288h327.68c182.464 0 331.072 143.232 331.072 320 0 176.96-148.608 320-331.072 320H192a32 32 0 1 1 0-64h404.928c147.648 0 267.072-114.944 267.072-256 0-140.928-119.424-256-267.072-256h-327.68l73.408 73.344a32 32 0 1 1-45.312 45.312L146.752 320l150.592-150.656a32 32 0 0 1 45.312 45.312L269.248 288z" fill="#FCFCFC" p-id="2361"></path></svg>
