<?xml version="1.0" standalone="no"?><!DOCTYPE svg PUBLIC "-//W3C//DTD SVG 1.1//EN" "http://www.w3.org/Graphics/SVG/1.1/DTD/svg11.dtd"><svg t="1499703958239" class="icon" style="" viewBox="0 0 1024 1024" version="1.1" xmlns="http://www.w3.org/2000/svg" p-id="2359" xmlns:xlink="http://www.w3.org/1999/xlink" width="16" height="16"><defs><style type="text/css"></style></defs><path d="M665.6 837.632h-577.536c-32.768 0-59.392-26.624-59.392-59.392V186.88c0-32.768 26.624-59.392 59.392-59.392H665.6c32.768 0 59.392 26.624 59.392 59.392v189.44h-51.2v-189.44c0-4.608-3.584-8.192-8.192-8.192h-577.536c-4.608 0-8.192 3.584-8.192 8.192v591.36c0 4.608 3.584 8.192 8.192 8.192H665.6c4.608 0 8.192-3.584 8.192-8.192v-133.632h51.2v133.632c0 32.768-26.624 59.392-59.392 59.392z" p-id="2360" fill="#d81e06"></path><path d="M164.352 345.6h253.952v51.2h-253.952zM164.352 505.856h253.952v51.2h-253.952zM685.568 593.408l-177.152-167.424 34.816-37.376 147.456 139.776 290.816-193.536 28.672 42.496z" p-id="2361" fill="#d81e06"></path></svg>