<?xml version="1.0" standalone="no"?><!DOCTYPE svg PUBLIC "-//W3C//DTD SVG 1.1//EN" "http://www.w3.org/Graphics/SVG/1.1/DTD/svg11.dtd"><svg t="1499702714453" class="icon" style="" viewBox="0 0 1024 1024" version="1.1" xmlns="http://www.w3.org/2000/svg" p-id="4652" xmlns:xlink="http://www.w3.org/1999/xlink" width="16" height="16"><defs><style type="text/css"></style></defs><path d="M725.225801 65.765843 296.292682 65.765843c0 0-61.607126-0.984421-61.607126 63.707974l-0.311085 768.735246c0 0-5.77247 63.379493 58.721403 63.379493l435.015651 0c0 0 59.672054 0.950651 59.672054-60.823274L787.783579 129.473817C787.783579 129.473817 789.700231 65.765843 725.225801 65.765843zM449.004759 96.668667l123.178437 0 0 30.870078L449.004759 127.538745 449.004759 96.668667zM402.794297 96.668667c8.511861 0 15.416108 6.869455 15.416108 15.418154 0 8.546653-6.90527 15.451924-15.416108 15.451924-8.493441 0-15.397688-6.906294-15.397688-15.451924C387.396609 103.538121 394.300856 96.668667 402.794297 96.668667zM510.593466 899.81463c-17.003256 0-30.794353-13.842263-30.794353-30.903847 0-17.023722 13.791098-30.902824 30.794353-30.902824 17.005302 0 30.795377 13.879102 30.795377 30.902824C541.388842 885.971343 527.598768 899.81463 510.593466 899.81463zM727.471958 776.234033 293.734416 776.234033 293.734416 158.40473 727.471958 158.40473 727.471958 776.234033z" p-id="4653" fill="#d81e06"></path></svg>