<?xml version="1.0" standalone="no"?><!DOCTYPE svg PUBLIC "-//W3C//DTD SVG 1.1//EN" "http://www.w3.org/Graphics/SVG/1.1/DTD/svg11.dtd"><svg t="1499702845840" class="icon" style="" viewBox="0 0 1024 1024" version="1.1" xmlns="http://www.w3.org/2000/svg" p-id="6512" xmlns:xlink="http://www.w3.org/1999/xlink" width="16" height="16"><defs><style type="text/css"></style></defs><path d="M498.871795 78.769231c126.030769 0 227.555556 101.524786 227.555556 227.555556l0 70.017094-455.111111 0 0-70.017094C271.316239 180.294017 372.841026 78.769231 498.871795 78.769231M498.871795 26.25641c-154.037607 0-280.068376 126.030769-280.068376 280.068376l0 122.529915 560.136752 0 0-122.529915C778.940171 152.287179 652.909402 26.25641 498.871795 26.25641L498.871795 26.25641z" p-id="6513" fill="#d81e06"></path><path d="M813.948718 428.854701l0 385.094017c0 57.764103-47.261538 105.025641-105.025641 105.025641l-420.102564 0c-57.764103 0-105.025641-47.261538-105.025641-105.025641l0-385.094017L813.948718 428.854701M866.461538 376.34188l-735.179487 0 0 437.606838c0 87.521368 70.017094 157.538462 157.538462 157.538462l420.102564 0c87.521368 0 157.538462-70.017094 157.538462-157.538462L866.461538 376.34188 866.461538 376.34188z" p-id="6514" fill="#d81e06"></path><path d="M507.623932 603.897436c14.003419 0 26.25641 12.252991 26.25641 26.25641l0 105.025641c0 14.003419-12.252991 26.25641-26.25641 26.25641s-26.25641-12.252991-26.25641-26.25641l0-105.025641C481.367521 616.150427 493.620513 603.897436 507.623932 603.897436z" p-id="6515" fill="#d81e06"></path></svg>