<?xml version="1.0" standalone="no"?><!DOCTYPE svg PUBLIC "-//W3C//DTD SVG 1.1//EN" "http://www.w3.org/Graphics/SVG/1.1/DTD/svg11.dtd"><svg t="1500209614320" class="icon" style="" viewBox="0 0 1024 1024" version="1.1" xmlns="http://www.w3.org/2000/svg" p-id="4172" xmlns:xlink="http://www.w3.org/1999/xlink" width="16" height="16"><defs><style type="text/css"></style></defs><path d="M512 47.886c-256.323 0-464.113 207.791-464.113 464.113s207.791 464.113 464.113 464.113 464.113-207.791 464.113-464.113-207.791-464.113-464.113-464.113zM704.398 671.234c9.158 9.158 9.158 24.004 0.001 33.161-9.158 9.158-24.005 9.159-33.162 0.001l-159.237-159.235-159.237 159.235c-9.158 9.158-24.006 9.158-33.163 0s-9.158-24.006 0-33.163l159.236-159.235-159.237-159.235c-9.158-9.158-9.158-24.004-0.001-33.161l0.002-0.002c9.158-9.158 24.005-9.159 33.162-0.001l159.236 159.236 159.236-159.235c9.159-9.159 24.007-9.158 33.164 0.001v0c9.157 9.158 9.157 24.005-0.001 33.162l-159.235 159.235 159.236 159.236z" fill="#ff97bc" p-id="4173"></path></svg>
